<?xml version="1.0" encoding="utf-8"?>
<!-- Generator: Adobe Illustrator 23.0.2, SVG Export Plug-In . SVG Version: 6.00 Build 0)  -->
<svg version="1.1" id="Layer_1" xmlns="http://www.w3.org/2000/svg" xmlns:xlink="http://www.w3.org/1999/xlink" x="0px" y="0px"
	 viewBox="0 0 209.8 42.8" style="enable-background:new 0 0 209.8 42.8;" xml:space="preserve">
<style type="text/css">
	.st0{fill:#2F80ED;}
	.st1{fill:#FFFFFF;}
	.st2{fill:#000435;}
</style>
<g>
	<rect class="st0" width="42.8" height="42.8"/>
</g>
<g>
	<path class="st1" d="M13.7,29v-2.4V6.5c0-0.1-0.1-0.1-0.2-0.1h-2.1c-1.1,0-1.9,0.5-1.9,1.1V29c0,4.2,5,7.6,11.8,8.5V35
		C16.8,34.2,13.7,31.8,13.7,29z"/>
</g>
<g>
	<path class="st1" d="M29.2,29v-2.4V6.5c0-0.1,0.1-0.1,0.2-0.1h2.1c1.6,0,1.9,0.5,1.9,1.1V29c0,4.2-5.1,8-12.2,8.5V35
		C25.9,34.5,29.2,31.8,29.2,29z"/>
</g>
<g>
	<path class="st1" d="M21.2,30.8L21.2,30.8c-1.1,0-2.1-0.9-2.1-2.1V6.4h4.2v22.3C23.3,29.9,22.4,30.8,21.2,30.8z"/>
</g>
<path class="st2" d="M55.7,33.3V10.7h3.4v9.7l8.9-9.7h4.2l-8.4,9l8.6,13.6h-4.2l-6.8-11l-2.3,2.5v8.5H55.7z"/>
<path class="st2" d="M75.3,33.3v-16h3.1l0.3,3c0.6-1.1,1.3-1.9,2.3-2.5c1-0.6,2.2-0.9,3.6-0.9v3.6h-0.9c-0.9,0-1.8,0.2-2.5,0.5
	c-0.7,0.3-1.3,0.8-1.8,1.6c-0.4,0.7-0.7,1.8-0.7,3.1v7.7H75.3z"/>
<path class="st2" d="M93,33.7c-1.4,0-2.5-0.2-3.4-0.7c-0.9-0.5-1.5-1-2-1.8c-0.4-0.7-0.6-1.6-0.6-2.4c0-1.5,0.6-2.8,1.8-3.7
	c1.2-0.9,2.9-1.4,5.2-1.4h4.2v-0.3c0-1.2-0.3-2.2-1-2.8c-0.7-0.6-1.6-0.9-2.6-0.9c-0.9,0-1.8,0.2-2.5,0.7c-0.7,0.5-1.1,1.1-1.3,2
	h-3.4c0.1-1.2,0.5-2.2,1.2-3c0.7-0.8,1.5-1.5,2.6-1.9c1-0.4,2.2-0.7,3.4-0.7c2.2,0,4,0.6,5.2,1.8c1.2,1.2,1.8,2.8,1.8,4.8v9.8h-3
	l-0.3-2.7c-0.5,0.9-1.1,1.6-2,2.2C95.5,33.4,94.4,33.7,93,33.7z M93.7,30.9c0.9,0,1.7-0.2,2.3-0.7c0.6-0.4,1.1-1,1.5-1.8
	c0.4-0.7,0.6-1.5,0.7-2.4h-3.8c-1.4,0-2.3,0.2-2.9,0.7c-0.6,0.5-0.9,1.1-0.9,1.8c0,0.7,0.3,1.3,0.8,1.7C92,30.7,92.7,30.9,93.7,30.9
	z"/>
<path class="st2" d="M105.6,33.3v-16h3l0.3,2.3c0.5-0.8,1.2-1.5,2-1.9c0.8-0.5,1.8-0.7,3-0.7c2.5,0,4.3,1,5.3,3
	c0.6-0.9,1.4-1.7,2.3-2.2c1-0.5,2-0.8,3.2-0.8c2,0,3.6,0.6,4.7,1.8c1.1,1.2,1.7,3,1.7,5.4v9.2h-3.4v-8.8c0-3.1-1.2-4.6-3.6-4.6
	c-1.2,0-2.2,0.5-3,1.4c-0.8,0.9-1.1,2.2-1.1,3.9v8.3h-3.4v-8.8c0-3.1-1.2-4.6-3.6-4.6c-1.2,0-2.2,0.5-2.9,1.4
	c-0.8,0.9-1.1,2.2-1.1,3.9v8.3H105.6z"/>
<path class="st2" d="M140.6,33.7c-1.4,0-2.5-0.2-3.4-0.7c-0.9-0.5-1.5-1-2-1.8c-0.4-0.7-0.6-1.6-0.6-2.4c0-1.5,0.6-2.8,1.8-3.7
	c1.2-0.9,2.9-1.4,5.2-1.4h4.2v-0.3c0-1.2-0.3-2.2-1-2.8c-0.7-0.6-1.6-0.9-2.6-0.9c-0.9,0-1.8,0.2-2.5,0.7c-0.7,0.5-1.1,1.1-1.3,2
	H135c0.1-1.2,0.5-2.2,1.2-3c0.7-0.8,1.5-1.5,2.6-1.9c1-0.4,2.2-0.7,3.4-0.7c2.2,0,4,0.6,5.2,1.8c1.2,1.2,1.8,2.8,1.8,4.8v9.8h-3
	l-0.3-2.7c-0.5,0.9-1.1,1.6-2,2.2C143.1,33.4,142,33.7,140.6,33.7z M141.3,30.9c0.9,0,1.7-0.2,2.3-0.7c0.6-0.4,1.1-1,1.5-1.8
	c0.4-0.7,0.6-1.5,0.7-2.4h-3.8c-1.4,0-2.3,0.2-2.9,0.7c-0.6,0.5-0.9,1.1-0.9,1.8c0,0.7,0.3,1.3,0.8,1.7
	C139.6,30.7,140.3,30.9,141.3,30.9z"/>
<path class="st2" d="M159.6,33.7c-2,0-3.7-0.5-5-1.5c-1.3-1-2.1-2.3-2.3-3.9h3.5c0.2,0.7,0.6,1.4,1.2,1.9c0.6,0.5,1.5,0.8,2.5,0.8
	c1,0,1.8-0.2,2.3-0.6c0.5-0.4,0.7-0.9,0.7-1.5c0-0.8-0.3-1.4-1-1.7c-0.7-0.3-1.6-0.6-2.7-0.8c-0.9-0.2-1.8-0.5-2.7-0.8
	c-0.9-0.3-1.6-0.8-2.2-1.4c-0.6-0.6-0.9-1.4-0.9-2.4c0-1.4,0.5-2.6,1.6-3.5c1.1-0.9,2.6-1.4,4.5-1.4c1.8,0,3.2,0.4,4.3,1.3
	c1.1,0.9,1.8,2.1,2,3.6h-3.3c-0.1-0.7-0.4-1.2-1-1.6c-0.5-0.4-1.2-0.6-2.1-0.6c-0.9,0-1.5,0.2-2,0.5c-0.5,0.4-0.7,0.8-0.7,1.4
	c0,0.6,0.3,1,1,1.3c0.7,0.3,1.5,0.6,2.6,0.9c1.1,0.2,2.1,0.5,3,0.8c0.9,0.3,1.7,0.8,2.2,1.4c0.6,0.6,0.8,1.5,0.8,2.6
	c0,1.5-0.5,2.7-1.7,3.6C163.1,33.2,161.6,33.7,159.6,33.7z"/>
<path class="st2" d="M177.2,33.7c-1.5,0-2.9-0.4-4.1-1c-1.2-0.7-2.2-1.7-2.9-2.9c-0.7-1.3-1.1-2.7-1.1-4.4c0-1.7,0.4-3.1,1.1-4.4
	c0.7-1.3,1.7-2.2,2.9-2.9c1.2-0.7,2.6-1,4.1-1c1.5,0,2.9,0.4,4.1,1c1.2,0.7,2.2,1.7,2.9,2.9c0.7,1.3,1.1,2.7,1.1,4.4
	c0,1.7-0.4,3.1-1.1,4.4c-0.7,1.3-1.7,2.2-2.9,2.9C180.1,33.3,178.8,33.7,177.2,33.7z M177.2,30.8c0.8,0,1.6-0.2,2.3-0.6
	c0.7-0.4,1.3-1,1.7-1.8c0.4-0.8,0.6-1.8,0.6-3c0-1.2-0.2-2.2-0.6-3c-0.4-0.8-1-1.4-1.7-1.8c-0.7-0.4-1.5-0.6-2.3-0.6
	c-0.8,0-1.6,0.2-2.3,0.6c-0.7,0.4-1.3,1-1.7,1.8c-0.4,0.8-0.6,1.8-0.6,3c0,1.2,0.2,2.2,0.6,3c0.4,0.8,1,1.4,1.7,1.8
	C175.7,30.6,176.4,30.8,177.2,30.8z"/>
<path class="st2" d="M189.9,33.3V20.2h-2.3v-2.9h2.3V15c0-1.7,0.4-3,1.3-3.8c0.9-0.8,2.1-1.1,3.7-1.1h1.7V13h-1.2
	c-0.8,0-1.3,0.2-1.6,0.5c-0.3,0.3-0.5,0.8-0.5,1.6v2.3h3.7v2.9h-3.7v13.1H189.9z"/>
<path class="st2" d="M207,33.3c-1.6,0-2.8-0.4-3.7-1.1c-0.9-0.8-1.4-2.1-1.4-4.1v-7.9h-2.7v-2.9h2.7l0.4-4.1h3v4.1h4.5v2.9h-4.5v7.9
	c0,0.9,0.2,1.5,0.6,1.8c0.4,0.3,1,0.5,2,0.5h1.8v2.9H207z"/>
</svg>
