<svg xmlns="http://www.w3.org/2000/svg" xmlns:v="https://vecta.io/nano" width="119" height="31" fill="none"><path d="M50.65 29.755v-3.17l13.174-15.96.919 1.722H50.888v-4.01h17.859v3.17l-13.173 15.96-.998-1.722h14.53v4.01H50.65zm31.787.286c-2.373 0-4.448-.475-6.225-1.424s-3.152-2.251-4.126-3.913c-.974-1.655-1.46-3.541-1.46-5.653s.475-4.028 1.424-5.677c.949-1.643 2.258-2.933 3.925-3.87s3.572-1.406 5.707-1.406 3.937.456 5.568 1.363a9.83 9.83 0 0 1 3.846 3.852c.931 1.655 1.4 3.608 1.4 5.854l-.018.724-.061.761H74.6v-3.328h15.176l-1.959 1.041c.024-1.229-.225-2.312-.761-3.249a5.87 5.87 0 0 0-2.184-2.209c-.919-.535-1.984-.803-3.182-.803s-2.3.268-3.225.803c-.919.536-1.643 1.278-2.16 2.227-.523.949-.779 2.063-.779 3.347v.803c0 1.284.292 2.422.882 3.408.584.992 1.412 1.752 2.483 2.288 1.065.535 2.294.803 3.681.803 1.199 0 2.282-.189 3.243-.56s1.813-.961 2.562-1.765l2.683 3.091c-.961 1.126-2.166 1.984-3.62 2.586s-3.115.901-4.983.901l-.018.006zm13.855-.286V0h5.002v13.314l-.402 5.695.159 5.695v5.05h-4.765.006zm11.853.28c-1.813 0-3.431-.402-4.843-1.205-1.418-.803-2.531-2.014-3.341-3.626-.815-1.619-1.223-3.669-1.223-6.158s.42-4.57 1.26-6.176 1.977-2.799 3.401-3.59c1.43-.791 3.012-1.18 4.746-1.18 2.106 0 3.968.456 5.586 1.363s2.897 2.178 3.846 3.809 1.424 3.554 1.424 5.774-.475 4.144-1.424 5.775-2.227 2.909-3.846 3.827c-1.612.925-3.474 1.381-5.586 1.381v.006zm-.559-4.29c1.198 0 2.275-.268 3.225-.803s1.703-1.308 2.263-2.324.84-2.209.84-3.572-.28-2.586-.84-3.59-1.314-1.771-2.263-2.306-2.021-.803-3.225-.803-2.282.268-3.244.803-1.722 1.302-2.281 2.306-.84 2.197-.84 3.59.28 2.556.84 3.572 1.32 1.789 2.281 2.324 2.045.803 3.244.803z" fill="#fff"></path><path d="M16.91 0h.03a2.84 2.84 0 0 1 2.495 1.619l3.572 6.194 3.578-6.206.012-.024c.006-.012.006-.024.012-.024.006-.018.012-.024.018-.037s.006-.018.012-.024c.006-.018.012-.024.018-.03.006-.012.006-.018.012-.024.006-.012.012-.024.018-.03 0 0 .006-.012.012-.018.006-.012.006-.018.012-.024.006-.018.012-.024.018-.03.006-.012.006-.018.012-.024.006-.018.012-.024.018-.03.012-.012.012-.018.018-.024.006-.012.012-.024.018-.03 0 0 .006-.012.012-.018.006-.012.006-.018.012-.024.006-.018.018-.024.018-.03.012-.012.012-.018.018-.024.012-.012.024-.024.024-.03.012-.012.012-.018.018-.024l.024-.024c0-.006.012-.012.018-.018.006-.012.012-.018.018-.024.006-.018.018-.024.024-.03.006-.012.012-.018.018-.024.006-.018.018-.024.024-.03.006-.012.012-.018.018-.024l.024-.024.018-.018.024-.024.018-.018.018-.018.024-.024.018-.018c.012-.006.024-.012.03-.024l.018-.018c.012-.006.024-.012.03-.018.006 0 .018-.006.018-.012.012-.006.024-.012.03-.018.006 0 .018-.006.018-.012.018-.006.024-.012.037-.024 0 0 .012-.006.018-.012.024-.012.037-.024.055-.037.024-.012.043-.024.055-.037l.055-.037s.012-.006.018-.012c.012-.006.024-.012.037-.024.006 0 .012-.006.018-.012l.037-.018c.006 0 .012-.006.018-.012.018-.012.037-.018.061-.03.018-.012.037-.018.061-.03.018-.012.043-.018.061-.03s.043-.018.061-.03c.018-.006.043-.018.061-.024a2.46 2.46 0 0 1 .225-.079l.067-.018.067-.018a2.75 2.75 0 0 1 .456-.073h.073.037.037.037.037H16.77h.037L16.91 0z" fill="#717d7a"></path><path d="M33.722 26.846a2.87 2.87 0 0 0-.432-1.193L19.441 1.619A2.85 2.85 0 0 0 16.952 0h-.037-.037-.158c-1.059.061-1.959.7-2.397 1.606L.456 25.647a2.84 2.84 0 0 0-.444 1.272v.03L0 27.199v.024c.006.888.42 1.679 1.065 2.197.408.329.913.554 1.485.608h.024l.237.012h.024 28.057.024c.073 0 .146 0 .219-.012a2.84 2.84 0 0 0 1.546-.627 2.86 2.86 0 0 0 1.047-2.111l-.018-.45.012.006z" fill="#3b4240"></path><path d="M45.995 26.846a2.87 2.87 0 0 0-.432-1.193L31.708 1.619C31.27.7 30.357.055 29.292 0h-.03-.012-.03-.043-.037-.049-.037-.037-.037-.073c-.158.012-.31.037-.456.073-.024 0-.049.012-.067.018l-.067.018-.225.079c-.024.006-.043.018-.061.024s-.043.018-.061.03-.043.018-.061.03-.043.018-.061.03-.037.018-.061.03c-.006 0-.012.006-.018.012 0 0-.024.018-.037.024-.006 0-.012.006-.018.012-.012.006-.024.012-.037.024 0 0-.012.006-.018.012l-.055.037c-.018.012-.037.024-.049.037-.024.012-.037.024-.055.037-.006 0-.018.006-.024.012-.012.006-.018.012-.03.024-.006 0-.018.006-.018.012-.012.006-.024.012-.03.018-.006 0-.018.006-.018.012-.012.006-.024.012-.03.018-.006 0-.018.006-.018.012-.012.012-.024.018-.03.03-.006 0-.012.006-.018.012l-.03.03-.018.012s-.006.018-.012.018l-.024.024h-.006s-.006.018-.012.018l-.024.024-.018.018c-.006.018-.018.024-.024.03-.006.012-.012.018-.018.024-.006.018-.018.024-.024.03-.006.012-.012.018-.018.024-.006.018-.018.024-.024.03l-.024.024c-.006.012-.012.018-.018.024 0 0-.012.012-.012.018l-.012.012c-.006.012-.012.018-.018.024 0 .006-.012.012-.012.018-.006.012-.006.018-.012.024-.006.012-.012.024-.018.03 0 0-.006.012-.012.018-.006.012-.006.018-.012.024-.012.018-.018.024-.024.03-.006.012-.006.018-.012.024-.006.018-.012.024-.018.03-.006.012-.006.018-.012.024v.012l-.018.018s-.006.012-.012.018l-.006.024c-.012.018-.018.024-.024.03-.006.012-.006.018-.012.024-.006.018-.012.024-.018.037s-.006.024-.012.024c-.006.018-.012.024-.018.037L23.11 7.728l10.283 17.841a2.87 2.87 0 0 1 .432 1.193 2.78 2.78 0 0 1 .018.45c-.03.852-.426 1.606-1.047 2.111-.42.347-.943.572-1.533.627l-.231.012h-.012 12.255.024c.073 0 .146 0 .219-.012a2.84 2.84 0 0 0 1.545-.627 2.86 2.86 0 0 0 1.047-2.111l-.018-.45-.097.085z" fill="#d1ff79"></path><path d="M30.929 30.041c.073 0 .146 0 .219-.012a2.84 2.84 0 0 0 1.546-.627 2.86 2.86 0 0 0 1.047-2.111l-.018-.45a2.87 2.87 0 0 0-.432-1.193L23.007 7.807 12.723 25.641a2.84 2.84 0 0 0-.444 1.272v.03l-.012.249v.024c.006.888.42 1.679 1.065 2.197.408.329.913.554 1.485.609h.024l.237.012h.024 15.784.024l.018.006z" fill="#3d473c"></path></svg>